<?xml version="1.0" encoding="UTF-8"?>
<svg id="Layer_1" data-name="Layer 1" xmlns="http://www.w3.org/2000/svg" viewBox="0 0 561.11 502.88">
  <defs>
    <style>
      .cls-1 {
        fill: #231f20;
      }
    </style>
  </defs>
  <g>
    <path class="cls-1" d="M233.21,177.14c-2.83-2.51-7.16-2.25-9.68.58-4.63,5.22-11.28,8.21-18.24,8.21-13.44,0-24.37-10.93-24.37-24.37,0-.29-.05-.57-.09-.85,3.04-2.14,5.04-5.66,5.04-9.65,0-6.52-5.29-11.81-11.81-11.81s-11.81,5.29-11.81,11.81c0,4,2,7.52,5.04,9.65-.04.28-.09.56-.09.85,0,13.44-10.93,24.37-24.37,24.37-6.96,0-13.61-2.99-18.24-8.21-2.51-2.83-6.85-3.09-9.68-.58s-3.09,6.84-.58,9.68c7.23,8.15,17.61,12.82,28.5,12.82,12.92,0,24.34-6.48,31.23-16.35,6.89,9.87,18.31,16.35,31.23,16.35,10.88,0,21.27-4.67,28.5-12.82,2.51-2.83,2.25-7.17-.58-9.68Z"/>
    <path class="cls-1" d="M376.46,172.65l-43.9-6.84c3.59-10.41,5.46-21.53,5.46-33.26,0-13.95-2.48-27.67-7.37-40.78-1.89-5.07-2.9-10.56-3.01-16.32l-.07-3.86c-.03-1.51.02-3.03.15-4.56l7.08-38.45c.05-.25.08-.49.1-.74.84-9.15-3.14-17.78-10.63-23.1-7.49-5.32-16.95-6.22-25.31-2.41l-47,21.42c-2.75,1.32-5.86,1.55-8.75.62l-2.07-.66c-13.51-4.33-30.33-9.72-45.95-9.72-16.5,0-32.68,2.51-48.08,7.45-.44.14-.88.24-1.3.29-4.51.52-7.75,4.6-7.23,9.11.52,4.51,4.63,7.74,9.11,7.23,1.49-.17,2.99-.5,4.45-.97,13.77-4.42,28.25-6.66,43.05-6.66,13.04,0,27.86,4.75,40.92,8.94l2.09.67c6.92,2.21,14.34,1.69,20.74-1.39l46.84-21.34c4.27-1.95,7.7-.05,8.97.85,1.25.88,4.06,3.39,3.79,7.86l-7.01,38.06c-.09.49-.16.98-.2,1.43-.18,2.1-.25,4.24-.22,6.37l.07,3.87c.14,7.62,1.5,14.95,4.04,21.77,4.2,11.26,6.33,23.05,6.33,35.03,0,10.22-1.95,20.62-5.95,30.62l-41.57-6.48c-2.97-.47-5.79,1.58-6.26,4.57-.47,2.99,1.58,5.8,4.58,6.26l38.28,5.97c-2.68,4.77-5.84,9.4-9.54,13.81l-41.59-9.36c-2.96-.66-5.89,1.19-6.56,4.15-.67,2.96,1.19,5.89,4.15,6.56l35.1,7.9c-21.33,19.5-54.62,33.01-101.02,33.01-55.72,0-90.14-16.45-108.91-38.96l9.24-2.08c2.95-.66,4.81-3.6,4.15-6.56-.67-2.95-3.6-4.81-6.55-4.15l-13.72,3.09c-2.44-4.03-4.47-8.18-6.1-12.41l6.97-1.09c2.99-.47,5.04-3.27,4.57-6.26s-3.27-5.03-6.26-4.57l-8.51,1.33c-1.43-6.18-2.13-12.44-2.13-18.65,0-13.37,4.37-28.91,12.99-46.2,1.5-3,5.34-11.97,6.79-18.71.21-.63.35-1.29.41-1.99,0-.01,0-.02,0-.04l.1-1.27c.02-.27.03-.54.03-.8.15-3.03.23-7.63-.13-10.8-.12-1.03-.37-2.04-.76-3.1l-9.77-25.83c-.1-.47-.27-1.17-.61-1.95-2.66-6.23-2.15-9.12-1.92-9.5.43-.31,2.83-.71,6.43.83.25.16.5.3.76.43l35.17,17.2c4.09,2,9.01.31,11-3.77,2-4.08.31-9.01-3.77-11L85.87,5.71c-.5-.3-1.01-.57-1.51-.79-9.54-4.23-19.06-3.31-24.84,2.39-3.5,3.46-8.35,11.54-1.93,27.09.11.48.25.96.42,1.43l9.8,25.92c.18,2.14.11,5.87-.04,8.3-.44,3.16-3.47,11.38-5.59,15.64-9.76,19.59-14.71,37.6-14.71,53.54,0,7.38.77,14.44,2.19,21.2l-45.02,7.02c-2.99.47-5.04,3.27-4.57,6.27.42,2.7,2.76,4.64,5.41,4.64.28,0,.57-.02.85-.06l46.24-7.21c1.6,4.73,3.55,9.28,5.87,13.62l-36.02,8.11c-2.95.66-4.81,3.6-4.15,6.56.57,2.55,2.84,4.28,5.34,4.28.4,0,.8-.04,1.21-.13l39.72-8.94c22.94,32.33,67.74,51.43,126.64,51.43,39.17,0,75.37-10.4,101.94-29.28,6.83-4.86,12.89-10.18,18.2-15.89l38.75,8.72c.41.09.81.13,1.21.13,2.51,0,4.77-1.73,5.34-4.28.66-2.96-1.19-5.89-4.15-6.56l-33.32-7.5c3.52-4.81,6.55-9.86,9.1-15.12l46.51,7.25c.29.04.57.06.85.06,2.65,0,4.99-1.93,5.41-4.64.47-2.99-1.58-5.8-4.57-6.27Z"/>
    <path class="cls-1" d="M214.24,284.43c2.51.1,10.04.33,13.38-.06,4.33-.51,9.86-.43,15.72-.34,19.77.27,46.83.67,67.38-20.65,3.15-3.27,3.06-8.48-.21-11.63-3.27-3.15-8.48-3.06-11.63.21-15.61,16.18-36.7,15.88-55.3,15.61-6.41-.09-12.47-.18-17.87.45-1.49.17-6.86.11-11-.05-.11,0-.21,0-.32,0-12.09,0-23.34,4.82-31.69,13.57-1.6,1.68-3,3.48-4.3,5.35-7.08-9.8-18.16-16.8-31.2-18.34-1.24-.14-2.88-.19-5.46-.24-1.65-.03-4.72-.1-5.45-.21-10.25-2.2-13.54-3.95-15.3-4.89l-.45-.24c-4.02-2.11-9-.58-11.11,3.44-2.12,4.02-.58,8.99,3.44,11.11l.36.19c2.48,1.32,7.09,3.79,19.61,6.47,1.88.4,4.48.48,8.54.57,1.32.03,3.32.07,3.87.13,15.02,1.78,26.38,15.51,24.81,29.99-1.49,13.73-13.21,19.93-23.68,21.17-3.64.43-7.48-.02-11.74-1.38-5.97-1.9-11.04-3.11-15.94-3.83l-7.03-1.03c-.05,0-.1,0-.15-.02-.14-.02-.28-.03-.42-.04-.17-.01-.34-.02-.51-.03-.04,0-.07,0-.11,0-24.98,0-45.3-20.32-45.3-45.3v-18.16c0-12.61,4.89-24.49,13.78-33.45,3.2-3.23,3.18-8.43-.04-11.63-3.23-3.19-8.43-3.18-11.63.05-11.96,12.06-18.55,28.05-18.55,45.03v18.16c0,33.81,27.32,61.35,61.04,61.73l6.55.96c4,.59,8.24,1.62,13.34,3.24,4.86,1.55,9.48,2.31,14,2.31,1.56,0,3.1-.09,4.64-.27,12.76-1.5,23.25-7.26,30.03-15.82,7.76,11.23,20.61,18.69,35.13,18.99h.44c1.71.05,3.49.08,5.29.08,4.82,0,9.85-.26,14.45-1.51,2.09-.57,4.12-1.16,6.11-1.74,6.47-1.89,12.06-3.52,17.22-3.52,4.54,0,8.23-3.68,8.23-8.23s-3.68-8.23-8.23-8.23c-7.5,0-14.46,2.03-21.82,4.17-1.89.55-3.82,1.11-5.8,1.65-4.04,1.09-9.91.97-15.09.86h-.45c-14.08-.3-26.07-11.97-26.73-26.02-.35-7.57,2.32-14.74,7.53-20.2,5.18-5.43,12.15-8.43,19.64-8.47Z"/>
    <path class="cls-1" d="M496.18,176.58c-12.95-55.82-61.44-98.29-120.95-101.46-2.34-.13-4.73-.19-7.1-.19-4.54,0-8.23,3.68-8.23,8.23s3.68,8.23,8.23,8.23c2.09,0,4.16.05,6.23.16,61.01,3.25,108.81,53.71,108.81,114.87,0,4.54,3.68,8.23,8.23,8.23s8.23-3.68,8.23-8.23c0-4.24-.21-8.44-.6-12.59,48.3,10.53,45.92,57.56,45.46,63.17-5.53,66.39-55.64,71.66-108.69,77.24-34.15,3.59-66.41,6.99-83.15,28.76-5.35,6.96-6.71,19.58-8.04,36.65-.42,5.37-.82,10.44-1.41,14.05-2.63,16.06-10.72,22.21-27.02,20.56-21.83-2.21-25.8-29.06-26.83-57.76l-.12-3.25c-2.52-61.18,52.89-68.25,111.54-75.72,45.85-5.84,93.26-11.88,96.71-52,.39-4.53-2.97-8.51-7.49-8.9-4.57-.37-8.51,2.97-8.9,7.49-2.16,25.08-32.56,30.74-82.39,37.09-57.49,7.33-129.04,16.44-125.9,92.72l.12,3.16c.75,20.82,2.5,69.58,41.62,73.53,2.15.22,4.24.33,6.25.33,21.34,0,34.97-12.1,38.66-34.59.7-4.3,1.13-9.7,1.57-15.43.71-9.09,1.9-24.29,4.68-27.91,12.44-16.18,41.29-19.22,71.83-22.43,52-5.47,116.71-12.28,123.36-92.24,2.23-26.79-9.1-73.4-64.68-81.78Z"/>
    <path class="cls-1" d="M258.19,144.54c-1.16,0-2.34-.29-3.41-.91-17.69-10.17-38.82.04-39.03.15-3.39,1.68-7.5.29-9.18-3.09-1.68-3.38-.32-7.48,3.06-9.18,1.12-.56,27.83-13.65,51.99.23,3.28,1.89,4.41,6.08,2.53,9.36-1.27,2.21-3.57,3.44-5.95,3.44Z"/>
    <path class="cls-1" d="M139.86,143.8c-1.16,0-2.33-.29-3.41-.91-17.27-9.93-33.13-.55-33.79-.15-3.22,1.95-7.44.95-9.41-2.27-1.97-3.21-1-7.41,2.2-9.4.94-.58,23.32-14.16,47.84-.07,3.28,1.89,4.41,6.08,2.53,9.36-1.27,2.21-3.58,3.44-5.95,3.44Z"/>
  </g>
  <path class="cls-1" d="M491.38,352.79c-4.54,0-8.23,3.68-8.23,8.23v34.59h-101.26c-4.54,0-8.23,3.68-8.23,8.23s3.68,8.23,8.23,8.23h85.68v74.38H121.25c-21.98,0-39.86-16.68-39.86-37.19s17.88-37.19,39.86-37.19h132.66c4.54,0,8.23-3.68,8.23-8.23s-3.68-8.23-8.23-8.23h-114.35c-20.5,0-37.19-16.68-37.19-37.19,0-4.54-3.68-8.23-8.23-8.23s-8.23,3.68-8.23,8.23c0,15.83,6.93,30.03,17.87,39.86-22.52,7.02-38.85,27.2-38.85,50.97,0,29.58,25.26,53.64,56.31,53.64h350.03c7.03,0,12.74-5.72,12.74-12.74v-78.09h7.36c4.54,0,8.23-3.68,8.23-8.23v-42.81c0-4.54-3.68-8.23-8.23-8.23Z"/>
  <path class="cls-1" d="M446.39,470.25H116.59c-3.03,0-5.48-2.46-5.48-5.48s2.46-5.48,5.48-5.48h329.79c3.03,0,5.48,2.46,5.48,5.48s-2.46,5.48-5.48,5.48Z"/>
  <path class="cls-1" d="M263.32,439.78h-102.18c-3.03,0-5.48-2.46-5.48-5.48s2.46-5.48,5.48-5.48h102.18c3.03,0,5.48,2.46,5.48,5.48s-2.46,5.48-5.48,5.48Z"/>
  <path class="cls-1" d="M453.46,439.78h-67.16c-3.03,0-5.48-2.46-5.48-5.48s2.46-5.48,5.48-5.48h67.16c3.03,0,5.48,2.46,5.48,5.48s-2.46,5.48-5.48,5.48Z"/>
  <path class="cls-1" d="M491.38,378.27h-78.81c-3.03,0-5.48-2.46-5.48-5.48s2.46-5.48,5.48-5.48h78.81c3.03,0,5.48,2.46,5.48,5.48s-2.46,5.48-5.48,5.48Z"/>
  <path class="cls-1" d="M253.92,378.27h-115.75c-3.03,0-5.48-2.46-5.48-5.48s2.46-5.48,5.48-5.48h115.75c3.03,0,5.48,2.46,5.48,5.48s-2.46,5.48-5.48,5.48Z"/>
</svg>